Coordinates
version=1
nRows=34
nColumns=38
inDegrees=no

Units are S.I. units (second, meters, Newtons, ...)
If the header above contains a line with 'inDegrees', this indicates whether rotational values are in degrees (yes) or radians (no).

endheader
time	pelvis_tilt	pelvis_list	pelvis_rotation	pelvis_tx	pelvis_ty	pelvis_tz	hip_flexion_r	hip_adduction_r	hip_rotation_r	knee_angle_r	ankle_angle_r	subtalar_angle_r	mtp_angle_r	hip_flexion_l	hip_adduction_l	hip_rotation_l	knee_angle_l	ankle_angle_l	subtalar_angle_l	mtp_angle_l	lumbar_extension	lumbar_bending	lumbar_rotation	arm_flex_r	arm_add_r	arm_rot_r	elbow_flex_r	pro_sup_r	wrist_flex_r	wrist_dev_r	arm_flex_l	arm_add_l	arm_rot_l	elbow_flex_l	pro_sup_l	wrist_flex_l	wrist_dev_l
165	-2.36522	1.50193	0.982024	0.770707	-0.608996	0.909612	-0.0845549	0.0235586	-0.109574	0.0609114	-0.288479	0	0	-0.0547232	-0.1241	-0.174927	0.0260051	-0.285101	0	0	0.07207	0.0869009	-0.063585	-0.0910066	-0.26753	0.115832	0.617537	1.32629	0	0	0.127835	-0.0572354	0.468629	0.296686	1.5708	0	0
165.01	-2.35156	1.49967	0.967332	0.771191	-0.609586	0.90934	-0.0846386	0.0251373	-0.104459	0.0594393	-0.289692	0	0	-0.0603438	-0.124571	-0.169943	0.0118314	-0.294124	0	0	0.074819	0.0896422	-0.0644316	-0.0901942	-0.262478	0.101992	0.614446	1.37699	0	0	0.127279	-0.0545466	0.45759	0.289239	1.5708	0	0
165.02	-2.33784	1.49796	0.953035	0.77165	-0.610004	0.909075	-0.0842809	0.0263438	-0.101147	0.0599808	-0.287275	0	0	-0.0615657	-0.126201	-0.167931	0.00895666	-0.292732	0	0	0.0772416	0.0920159	-0.0652584	-0.088213	-0.262244	0.105461	0.613341	1.37817	0	0	0.128033	-0.053669	0.45951	0.282159	1.5708	0	0
165.03	-2.33578	1.49654	0.950111	0.772091	-0.610355	0.908821	-0.0836112	0.0255945	-0.0960459	0.0612643	-0.284517	0	0	-0.0616152	-0.127189	-0.166037	0.00801115	-0.290619	0	0	0.07967	0.0935117	-0.0654528	-0.0865153	-0.261857	0.108372	0.613002	1.37829	0	0	0.128575	-0.0533473	0.460537	0.277118	1.5708	0	0
165.04	-2.32471	1.49744	0.939407	0.77264	-0.610497	0.908785	-0.0865267	0.0229165	-0.0904938	0.0603891	-0.288727	0	0	-0.0643413	-0.126969	-0.161931	0.00517015	-0.292534	0	0	0.0787574	0.0941262	-0.0661941	-0.0846951	-0.261814	0.113554	0.613686	1.37051	0	0	0.129607	-0.0535408	0.458664	0.274621	1.5708	0	0
165.05	-2.23381	1.4538	0.85832	0.774838	-0.60958	0.903263	-0.0515508	0.0583461	-0.086352	0.0701946	-0.275783	0	0	0.0127335	-0.14946	-0.143144	0.031577	-0.28026	0	0	0.115292	0.135101	-0.076782	-0.105121	-0.277673	0.110173	0.647065	1.37106	0	0	0.126615	-0.0446481	0.461268	0.274634	1.5708	0	0
165.06	-2.23323	1.4534	0.857103	0.775214	-0.609796	0.903181	-0.0514386	0.0579141	-0.0857623	0.0708482	-0.27738	0	0	0.0121462	-0.149359	-0.143212	0.0310692	-0.278624	0	0	0.116276	0.135965	-0.0757351	-0.104849	-0.277135	0.113074	0.648036	1.37048	0	0	0.127279	-0.0454897	0.461085	0.274396	1.5708	0	0
165.07	-2.34701	1.49393	0.957316	0.77356	-0.611274	0.90828	-0.0805239	0.0209335	-0.0853292	0.0682663	-0.278145	0	0	-0.0659039	-0.126132	-0.162311	0	-0.293389	0	0	0.0855542	0.0966807	-0.0607974	-0.0848742	-0.259508	0.120166	0.61588	1.3788	0	0	0.130706	-0.0557016	0.457639	0.273253	1.5708	0	0
165.08	-2.35067	1.49322	0.960526	0.773882	-0.611453	0.908217	-0.0798753	0.0204628	-0.0852902	0.0686471	-0.278661	0	0	-0.0663414	-0.125725	-0.162521	0	-0.29136	0	0	0.0871056	0.097081	-0.0601234	-0.0843473	-0.258813	0.122441	0.61754	1.37654	0	0	0.131043	-0.0569853	0.454796	0.275017	1.5708	0	0
165.09	-2.09568	1.39317	0.688781	0.767226	-0.613489	0.898811	-0.026989	0.135133	-0.00666101	0.0653286	-0.276275	0	0	-0.0291304	-0.230213	-0.111306	0	-0.231769	0	0	0.154423	0.196116	-0.0460467	-0.128155	-0.276478	0.108115	0.673812	1.37432	0	0	0.128678	-0.0517039	0.518911	0.266689	1.5708	0	0
165.1	-2.391	1.4879	0.997239	0.774327	-0.612061	0.907737	-0.0719223	0.0193074	-0.0833932	0.07294	-0.276032	0	0	-0.0625797	-0.124851	-0.167649	0	-0.288319	0	0	0.0962791	0.0982844	-0.0553887	-0.0866676	-0.257659	0.125022	0.621587	1.38632	0	0	0.130488	-0.0588848	0.448075	0.279929	1.5708	0	0
165.11	-2.38988	1.48746	0.996128	0.774646	-0.612187	0.90775	-0.0722321	0.0192554	-0.0856762	0.0719662	-0.277168	0	0	-0.063099	-0.124795	-0.167392	0	-0.292178	0	0	0.0971626	0.0986733	-0.0554214	-0.0857037	-0.257344	0.128411	0.622695	1.39416	0	0	0.127951	-0.061604	0.438182	0.289886	1.5708	0	0
165.12	-2.39125	1.48653	0.996234	0.774946	-0.612407	0.907682	-0.0719275	0.0191111	-0.0847895	0.0714891	-0.277852	0	0	-0.0632707	-0.124796	-0.168468	0	-0.293477	0	0	0.0988568	0.0996681	-0.0542915	-0.0861171	-0.257115	0.129732	0.625279	1.39822	0	0	0.126114	-0.0632982	0.429871	0.297732	1.5708	0	0
165.13	-2.3901	1.48606	0.994111	0.775176	-0.612644	0.907693	-0.0721875	0.0190692	-0.0842372	0.0708053	-0.278422	0	0	-0.0637386	-0.124951	-0.16849	0	-0.293968	0	0	0.099979	0.100408	-0.0531261	-0.0866859	-0.256575	0.131095	0.627668	1.39994	0	0	0.125737	-0.0643871	0.422465	0.303138	1.5708	0	0
165.14	-2.1838	1.37994	0.761779	0.766291	-0.614473	0.896907	0.0200998	0.115803	-0.00761653	0.133142	-0.23996	0	0	-0.0131399	-0.230068	-0.12395	0	-0.228662	0	0	0.180504	0.196824	-0.0321473	-0.132249	-0.27149	0.117352	0.682676	1.40326	0	0	0.112727	-0.0666024	0.46517	0.316917	1.5708	0	0
165.15	-2.55765	1.46132	1.17473	0.777915	-0.610867	0.905137	-0.0294073	0.0108869	-0.0944749	0.0975912	-0.249583	0	0	-0.0451895	-0.120761	-0.154291	0	-0.297088	0	0	0.135056	0.0977303	-0.0644472	-0.091158	-0.257773	0.134587	0.630773	1.40862	0	0	0.124597	-0.0652172	0.422957	0.311008	1.5708	0	0
165.16	-2.42104	1.48325	1.0218	0.775826	-0.613285	0.907554	-0.0676895	0.016869	-0.0825426	0.0742122	-0.268283	0	0	-0.0616137	-0.123198	-0.168916	0	-0.295108	0	0	0.107289	0.100444	-0.0486437	-0.0881258	-0.255028	0.137537	0.630479	1.41762	0	0	0.129969	-0.0702116	0.445579	0.310685	1.5708	0	0
165.17	-2.48454	1.47715	1.105	0.778784	-0.610652	0.906669	-0.0567228	0.0115205	-0.097138	0.0769374	-0.270263	0	0	-0.0647387	-0.119986	-0.154093	0	-0.309797	0	0	0.113412	0.0973091	-0.0654904	-0.0865701	-0.256159	0.135236	0.634776	1.41813	0	0	0.129802	-0.0708658	0.425798	0.325705	1.5708	0	0
165.18	-2.49609	1.47664	1.11918	0.779322	-0.610636	0.906604	-0.0549436	0.0100068	-0.103423	0.0796297	-0.271119	0	0	-0.0636962	-0.118544	-0.147522	0	-0.317334	0	0	0.115044	0.0960992	-0.0683879	-0.0864446	-0.255289	0.135389	0.636392	1.41888	0	0	0.127464	-0.0726231	0.413312	0.335512	1.5708	0	0
165.19	-2.5027	1.47637	1.12623	0.779704	-0.610714	0.90663	-0.0537887	0.00888871	-0.105202	0.0817839	-0.27153	0	0	-0.0635552	-0.117439	-0.14561	0	-0.322452	0	0	0.116407	0.0960048	-0.070106	-0.085574	-0.255105	0.137446	0.637225	1.4208	0	0	0.13037	-0.0732844	0.41996	0.334419	1.5708	0	0
165.2	-2.50478	1.47654	1.12843	0.77995	-0.610767	0.906613	-0.0533898	0.00830474	-0.10564	0.0832708	-0.271291	0	0	-0.0638769	-0.116819	-0.144716	0	-0.325708	0	0	0.116655	0.0951904	-0.0683674	-0.0861192	-0.255029	0.138491	0.638151	1.42339	0	0	0.127197	-0.0754698	0.40731	0.34704	1.5708	0	0
165.21	-2.50826	1.47607	1.13119	0.780177	-0.610873	0.906644	-0.0522186	0.00774079	-0.104778	0.0849056	-0.270786	0	0	-0.0638044	-0.116223	-0.144831	0	-0.327886	0	0	0.117941	0.0957237	-0.0687605	-0.0855339	-0.255084	0.140294	0.638754	1.42636	0	0	0.130405	-0.075704	0.414028	0.345188	1.5708	0	0
165.22	-2.50827	1.47651	1.1307	0.780381	-0.610972	0.906627	-0.0521592	0.00698583	-0.104119	0.0867612	-0.270167	0	0	-0.0646438	-0.115658	-0.145033	0	-0.329134	0	0	0.117899	0.0952292	-0.0664012	-0.0866386	-0.255223	0.140544	0.639999	1.42846	0	0	0.127584	-0.0771957	0.402136	0.356468	1.5708	0	0
165.23	-2.50943	1.47687	1.13122	0.780584	-0.611065	0.906642	-0.0518826	0.00614976	-0.103397	0.0886777	-0.269415	0	0	-0.0653717	-0.114968	-0.145297	0	-0.329881	0	0	0.117905	0.095092	-0.0656571	-0.0868491	-0.2553	0.140726	0.641323	1.43016	0	0	0.12643	-0.0776303	0.393236	0.362991	1.5708	0	0
165.24	-2.50889	1.47721	1.13022	0.78079	-0.611141	0.906663	-0.0517571	0.00568273	-0.102943	0.090056	-0.268407	0	0	-0.0659894	-0.114614	-0.145311	0	-0.33033	0	0	0.117919	0.095064	-0.0652407	-0.0868223	-0.255343	0.140908	0.642114	1.43183	0	0	0.126097	-0.0778139	0.386541	0.367498	1.5708	0	0
165.25	-2.51434	1.47638	1.13467	0.780932	-0.611231	0.906574	-0.0493249	0.00513904	-0.101706	0.0938115	-0.263271	0	0	-0.0651685	-0.114384	-0.145678	0	-0.326174	0	0	0.119651	0.0951357	-0.0633736	-0.0881594	-0.254471	0.136534	0.642677	1.44386	0	0	0.127863	-0.0780068	0.389671	0.367932	1.5708	0	0
165.26	-2.51783	1.47534	1.13747	0.781125	-0.611282	0.906547	-0.0478161	0.00493638	-0.0999284	0.0946671	-0.263571	0	0	-0.0640888	-0.114298	-0.145486	0	-0.32169	0	0	0.121713	0.0960248	-0.0637511	-0.0875968	-0.254951	0.137923	0.64228	1.44518	0	0	0.13423	-0.0768418	0.404375	0.357927	1.5708	0	0
165.27	-2.51847	1.47537	1.13715	0.781307	-0.611288	0.906497	-0.0478136	0.00444058	-0.0976787	0.0944559	-0.264017	0	0	-0.0641149	-0.113945	-0.146562	0	-0.316823	0	0	0.121902	0.0963158	-0.0629139	-0.0873383	-0.255582	0.138676	0.642481	1.44611	0	0	0.134292	-0.0762848	0.397031	0.36084	1.5708	0	0
165.28	-2.51667	1.47552	1.13313	0.781371	-0.61157	0.906457	-0.0490467	0.00431494	-0.093368	0.0922983	-0.264614	0	0	-0.0650812	-0.113787	-0.151399	0	-0.309698	0	0	0.122311	0.0968651	-0.0611948	-0.0876474	-0.256169	0.13889	0.642786	1.44708	0	0	0.133033	-0.0757447	0.387872	0.364749	1.5708	0	0
165.29	-2.45376	1.48259	1.04831	0.778738	-0.614476	0.907251	-0.0618094	0.00897204	-0.0748884	0.0875073	-0.265044	0	0	-0.0639903	-0.116135	-0.17087	0	-0.290602	0	0	0.115787	0.0994822	-0.0392554	-0.0914171	-0.254722	0.138466	0.641744	1.44813	0	0	0.123586	-0.0778544	0.368139	0.378209	1.5708	0	0
165.3	-2.20284	1.40521	0.825147	0.777146	-0.611232	0.899286	-0.0112451	0.096801	-0.0558125	0.089399	-0.260746	0	0	-0.0347007	-0.199984	-0.0998389	0	-0.288276	0	0	0.167099	0.170787	-0.0710426	-0.111534	-0.267902	0.129069	0.677634	1.44936	0	0	0.128125	-0.0770099	0.40614	0.379703	1.5708	0	0
165.31	-2.46602	1.48101	1.05898	0.779053	-0.614631	0.907126	-0.0588055	0.00807787	-0.0735494	0.0901929	-0.26199	0	0	-0.0625666	-0.115346	-0.171543	0	-0.291129	0	0	0.119761	0.100158	-0.0381511	-0.0915384	-0.255488	0.1378	0.640011	1.45128	0	0	0.133901	-0.0773	0.401652	0.361995	1.5708	0	0
165.32	-2.20387	1.40519	0.826552	0.777442	-0.611124	0.899243	-0.0105007	0.0962312	-0.0561584	0.0910171	-0.261015	0	0	-0.0339271	-0.199541	-0.0989328	0	-0.287279	0	0	0.167785	0.170476	-0.0720789	-0.110489	-0.268199	0.128402	0.676368	1.44892	0	0	0.12952	-0.0764551	0.402926	0.380932	1.5708	0	0
165.33	-2.54906	1.46804	1.16369	0.782034	-0.611855	0.905542	-0.0368788	0.0029167	-0.0929112	0.101983	-0.259116	0	0	-0.0570212	-0.113054	-0.148242	0	-0.30906	0	0	0.135377	0.0971777	-0.0604426	-0.0900072	-0.257331	0.134892	0.641468	1.44998	0	0	0.130363	-0.0741582	0.370712	0.373648	1.5708	0	0
